<?xml version="1.0" encoding="UTF-8" standalone="no"?>
<!-- Created with Inkscape (http://www.inkscape.org/) -->

<svg
   width="134.9875mm"
   height="103.12084mm"
   viewBox="0 0 134.9875 103.12084"
   version="1.1"
   id="svg1"
   sodipodi:docname="favicon.svg"
   inkscape:version="1.3.2 (091e20e, 2023-11-25, custom)"
   inkscape:export-filename="favicon.svg"
   inkscape:export-xdpi="24.610001"
   inkscape:export-ydpi="24.610001"
   xmlns:inkscape="http://www.inkscape.org/namespaces/inkscape"
   xmlns:sodipodi="http://sodipodi.sourceforge.net/DTD/sodipodi-0.dtd"
   xmlns="http://www.w3.org/2000/svg"
   xmlns:svg="http://www.w3.org/2000/svg">
  <sodipodi:namedview
     id="namedview1"
     pagecolor="#505050"
     bordercolor="#ffffff"
     borderopacity="1"
     inkscape:showpageshadow="0"
     inkscape:pageopacity="0"
     inkscape:pagecheckerboard="1"
     inkscape:deskcolor="#505050"
     inkscape:document-units="mm"
     inkscape:zoom="3.853474"
     inkscape:cx="211.88673"
     inkscape:cy="237.31833"
     inkscape:window-width="1920"
     inkscape:window-height="1009"
     inkscape:window-x="1912"
     inkscape:window-y="-8"
     inkscape:window-maximized="1"
     inkscape:current-layer="svg1" />
  <defs
     id="defs1" />
  <g
     id="layer1"
     transform="matrix(0.12914051,0,0,0.17091724,55.203027,32.325354)"
     inkscape:export-filename="faicon.svg"
     inkscape:export-xdpi="25.649689"
     inkscape:export-ydpi="25.649689"
     style="stroke-width:7.12358;stroke-dasharray:none;fill:#79c3ff;fill-opacity:1">
    <path
       style="fill:#79c3ff;fill-opacity:1;stroke:#4b88a2;stroke-width:7.12358;stroke-dasharray:none;stroke-opacity:1"
       d="m 108.37955,110.20297 c -0.13325,-0.91132 2.09974,-3.58762 2.90833,-4.21246 1.60228,-1.23821 6.07369,-2.29981 6.83702,-3.87284 2.06548,-4.256415 3.09655,-10.855254 6.08874,-13.424487 1.82239,-5.873232 4.56052,-8.824096 5.30637,-1.13907 5.58868,-0.373201 8.76854,1.870779 11.71824,5.923164 1.32363,1.509164 3.4356,2.058171 4.47562,2.125146 1.06297,4.308971 -3.81232,7.898667 -3.81232,7.898667 0,0 -5.44916,1.24289 -8.18066,1.5947 4.44653,8.94097 -1.02433,25.7899 -5.37439,33.63378 -21.05115,-1.7975 -19.83508,-5.35218 -19.83508,-5.35218"
       id="path10" />
    <path
       style="fill:#79c3ff;fill-opacity:1;stroke:#4b88a2;stroke-width:7.12358;stroke-dasharray:none;stroke-opacity:1"
       d="m 69.184882,124.73183 c -7.464951,-12.44242 7.404921,-18.70316 7.404921,-30.197234 0,-9.771758 -19.746453,-6.013453 -19.746453,-19.972973 0,-0.64128 -0.416807,-3.640637 0,-4.042151 2.65815,-2.560608 13.163779,-0.184767 17.031314,-1.426641 7.721287,-2.479321 13.723909,-2.567912 21.721095,0 3.552518,1.14072 21.967921,58.055409 21.967921,63.723289"
       id="path8" />
    <path
       style="fill:#79c3ff;fill-opacity:1;stroke:#4b88a2;stroke-width:7.12358;stroke-dasharray:none;stroke-opacity:1"
       d="m 86.31854,71.74977 c 1.439037,9.952338 -1.588511,22.429263 1.187021,21.287863 4.074309,-1.675504 16.617989,-0.73294 11.549408,-18.141951"
       id="path9" />
    <path
       style="fill:#79c3ff;fill-opacity:1;stroke:#4b88a2;stroke-width:7.12358;stroke-dasharray:none;stroke-opacity:1"
       d="m 45.25384,139.38183 c 10.677002,-11.54044 31.014001,2.40973 20.714031,14.27054 -10.339423,11.90623 -43.331599,-3.33658 -26.445559,-24.23618 26.060639,-28.46152 85.104458,24.94346 116.585408,-8.78273 l -18.33607,28.4153 c -29.0941,14.65173 -42.68755,-7.26582 -69.225761,-3.90702"
       id="path1" />
    <path
       style="fill:#79c3ff;fill-opacity:1;stroke:#4b88a2;stroke-width:7.12358;stroke-dasharray:none;stroke-opacity:1"
       d="M 145.34101,137.42903 C 107.64795,153.53597 81.354491,124.07779 57.858991,135.50639"
       id="path2" />
  </g>
</svg>
