<?xml version="1.0" encoding="UTF-8" standalone="no"?>
<svg
   viewBox="0 0 20.000429 20.000431"
   version="1.1"
   id="svg1"
   width="20.000429"
   height="20.000431"
   xmlns="http://www.w3.org/2000/svg"
   xmlns:svg="http://www.w3.org/2000/svg">
  <defs
     id="defs1" />
  <path
     d="m 19.385567,15.750864 a 2.108,2.108 0 0 1 -0.522,3.359 7.543,7.543 0 0 1 -5.476,0.642 c -4.8859998,-1.23 -11.9089998,-8.253 -13.13899976,-13.1389998 a 7.543,7.543 0 0 1 0.642,-5.476 2.108,2.108 0 0 1 3.35899996,-0.52200003 l 2.085,2.08400003 a 2.094,2.094 0 0 1 0.445,2.328 3.877,3.877 0 0 1 -0.778,1.172 c -2.384,2.384 5.4169998,10.1849998 7.7999998,7.7999998 a 3.877,3.877 0 0 1 1.173,-0.781 2.092,2.092 0 0 1 2.328,0.445 z"
     id="path1" />
</svg>
