<?xml version="1.0" encoding="UTF-8" standalone="no"?>
<!-- Created with Inkscape (http://www.inkscape.org/) -->

<svg
   width="210mm"
   height="297mm"
   viewBox="0 0 210 297"
   version="1.1"
   id="svg1"
   inkscape:version="1.3.2 (091e20e, 2023-11-25, custom)"
   sodipodi:docname="newLogo.svg"
   xmlns:inkscape="http://www.inkscape.org/namespaces/inkscape"
   xmlns:sodipodi="http://sodipodi.sourceforge.net/DTD/sodipodi-0.dtd"
   xmlns="http://www.w3.org/2000/svg"
   xmlns:svg="http://www.w3.org/2000/svg">
  <sodipodi:namedview
     id="namedview1"
     pagecolor="#505050"
     bordercolor="#ffffff"
     borderopacity="1"
     inkscape:showpageshadow="0"
     inkscape:pageopacity="0"
     inkscape:pagecheckerboard="1"
     inkscape:deskcolor="#505050"
     inkscape:document-units="mm"
     inkscape:zoom="1.4142136"
     inkscape:cx="385.01964"
     inkscape:cy="382.19122"
     inkscape:window-width="1920"
     inkscape:window-height="1009"
     inkscape:window-x="1912"
     inkscape:window-y="-8"
     inkscape:window-maximized="1"
     inkscape:current-layer="layer1" />
  <defs
     id="defs1">
    <linearGradient
       id="swatch12"
       inkscape:swatch="solid">
      <stop
         style="stop-color:#000000;stop-opacity:1;"
         offset="0"
         id="stop12" />
    </linearGradient>
    <linearGradient
       id="swatch11"
       inkscape:swatch="solid">
      <stop
         style="stop-color:#00ff00;stop-opacity:1;"
         offset="0"
         id="stop11" />
    </linearGradient>
  </defs>
  <g
     inkscape:label="Layer 1"
     inkscape:groupmode="layer"
     id="layer1">
    <rect
       style="fill:#ffffff;fill-opacity:1;stroke-width:1"
       id="rect2"
       width="255.35425"
       height="203.1144"
       x="-11.324723"
       y="28.12915"
       sodipodi:insensitive="true" />
    <path
       style="fill:none;fill-opacity:1;stroke:#000000;stroke-width:2.58979;stroke-dasharray:none"
       d="m 66.378552,119.30626 c -7.464951,-12.44242 7.404921,-18.70316 7.404921,-30.197235 0,-9.771758 -19.746453,-6.013453 -19.746453,-19.972973 0,-0.64128 -0.416807,-3.640637 0,-4.042151 2.65815,-2.560608 13.163779,-0.184767 17.031314,-1.426641 7.721287,-2.479321 13.723909,-2.567912 21.721095,0 3.552518,1.14072 21.967921,58.05541 21.967921,63.72329"
       id="path8" />
    <path
       style="fill:none;fill-opacity:1;stroke:#000000;stroke-width:2.54158;stroke-dasharray:none"
       d="m 83.886388,67.446731 c 1.439037,9.952338 -1.588511,22.429263 1.187021,21.287863 4.074309,-1.675504 16.617991,-0.73294 11.549408,-18.141951"
       id="path9"
       sodipodi:nodetypes="csc" />
    <path
       style="fill:none;fill-opacity:1;stroke:#000000;stroke-width:2.3992;stroke-dasharray:none"
       d="m 108.56664,104.21613 c -0.13325,-0.91132 2.09974,-3.58762 2.90833,-4.21246 1.60228,-1.23821 6.07369,-2.299807 6.83702,-3.872841 2.06548,-4.256411 3.09655,-10.85525 6.08874,-13.424483 1.82239,-5.873232 4.56052,-8.824096 5.30637,-1.13907 5.58868,-0.373201 8.76854,1.870779 11.71824,5.923164 1.32363,1.509164 3.4356,2.058171 4.47562,2.125146 1.06297,4.308971 -3.81232,7.898671 -3.81232,7.898671 0,0 -5.44916,1.242884 -8.18066,1.594696 4.44653,8.940967 0.0982,22.235217 -4.25186,30.079097"
       id="path10"
       sodipodi:nodetypes="ccsccccccc" />
  </g>
</svg>
