<?xml version="1.0" encoding="UTF-8" standalone="no"?>
<!-- Created with Inkscape (http://www.inkscape.org/) -->

<svg
   width="43.787807mm"
   height="14.655056mm"
   viewBox="0 0 43.787807 14.655056"
   version="1.1"
   id="svg1"
   inkscape:version="1.3.2 (091e20e, 2023-11-25, custom)"
   sodipodi:docname="LogoComplete.svg"
   xmlns:inkscape="http://www.inkscape.org/namespaces/inkscape"
   xmlns:sodipodi="http://sodipodi.sourceforge.net/DTD/sodipodi-0.dtd"
   xmlns="http://www.w3.org/2000/svg"
   xmlns:svg="http://www.w3.org/2000/svg">
  <sodipodi:namedview
     id="namedview1"
     pagecolor="#505050"
     bordercolor="#ffffff"
     borderopacity="1"
     inkscape:showpageshadow="0"
     inkscape:pageopacity="0"
     inkscape:pagecheckerboard="1"
     inkscape:deskcolor="#505050"
     inkscape:document-units="mm"
     inkscape:zoom="1.4485269"
     inkscape:cx="297.88884"
     inkscape:cy="489.80795"
     inkscape:window-width="1920"
     inkscape:window-height="1009"
     inkscape:window-x="1912"
     inkscape:window-y="-8"
     inkscape:window-maximized="1"
     inkscape:current-layer="layer1" />
  <defs
     id="defs1">
    <linearGradient
       id="swatch21"
       inkscape:swatch="solid">
      <stop
         style="stop-color:#000000;stop-opacity:1;"
         offset="0"
         id="stop21" />
    </linearGradient>
    <linearGradient
       id="swatch16"
       inkscape:swatch="solid">
      <stop
         style="stop-color:#000000;stop-opacity:1;"
         offset="0"
         id="stop16" />
    </linearGradient>
    <linearGradient
       id="linearGradient8"
       inkscape:swatch="gradient">
      <stop
         style="stop-color:#000000;stop-opacity:1;"
         offset="0"
         id="stop8" />
      <stop
         style="stop-color:#000000;stop-opacity:0;"
         offset="1"
         id="stop9" />
    </linearGradient>
  </defs>
  <g
     inkscape:label="Layer 1"
     inkscape:groupmode="layer"
     id="layer1"
     transform="translate(-64.177781,-138.28899)">
    <g
       id="g15"
       inkscape:export-filename="LogoComplete.svg"
       inkscape:export-xdpi="120"
       inkscape:export-ydpi="120">
      <path
         style="color:#000000;fill:#79c3ff;stroke-linecap:round;stroke-linejoin:round;-inkscape-stroke:none"
         d="m 84.988281,90.619141 c -0.377227,-0.08608 -0.765132,-0.06372 -1.130859,0.11914 -0.650092,0.325046 -1.063986,0.889729 -1.320313,1.501953 -0.256327,0.612225 -0.376527,1.284433 -0.466797,1.9375 -0.09027,0.653068 -0.149091,1.289447 -0.25,1.804688 -0.100908,0.515241 -0.25542,0.888233 -0.416015,1.048828 -0.0094,0.0094 -0.302367,0.133371 -0.759766,0.146484 -0.457399,0.01311 -1.053096,-0.03473 -1.666015,-0.101562 -0.61292,-0.06683 -1.246229,-0.151447 -1.8125,-0.201172 -0.566272,-0.04972 -2.490881,-0.03016 -2.886294,0.162383 -4.720779,2.298797 -7.642173,2.946991 -14.478941,2.946991 -0.279422,0 -1.434072,-0.09104 -2.527344,-0.121094 -0.546635,-0.01503 -1.088894,-0.01462 -1.548828,0.02344 -0.229967,0.01903 -0.43957,0.04599 -0.630859,0.09375 -0.191289,0.04776 -0.372168,0.09678 -0.554688,0.2793 -2.255218,2.2552 4.54849,10.47919 5.892579,11.29492 2.153515,1.30696 8.285263,2.02575 12.828291,0.64899 -2.034776,5.07439 -5.93937,14.90356 -7.860132,16.56341 l -11.940816,10.31885 c -0.582779,2.89795 0.275829,5.98933 3.71875,7.85156 8.4021,4.54458 21.500757,8.6253 32.978516,10.78711 5.73888,1.08091 11.06754,1.68126 15.2168,1.60351 2.07463,-0.0389 3.85333,-0.24438 5.26172,-0.6621 1.40838,-0.41773 2.48138,-1.05434 3.00976,-2.03321 0.8641,-1.60081 0.90932,-3.23955 0.5332,-4.78125 -0.37611,-1.54169 -1.15418,-3.00611 -1.94921,-4.38867 -0.79504,-1.38256 -1.60875,-2.68714 -2.08204,-3.85352 -0.47328,-1.16637 -0.6022,-2.13349 -0.17382,-2.99023 1.51698,-3.03397 5.548,-4.23882 9.21093,-5.71875 4.55522,-1.84045 7.59815,-4.83639 7.45627,-6.47435 0.96999,5.50447 -4.87565,6.33636 -9.16525,8.82005 -1.31937,0.76392 -2.0372,2.2043 -1.79883,3.77539 0.22958,1.51317 1.48236,3.06088 3.08399,4.81055 1.60162,1.74967 3.58895,3.66646 5.38671,5.67969 1.79777,2.01323 3.39926,4.12458 4.24219,6.20508 0.84293,2.0805 0.955,4.08744 -0.18164,6.10742 -9.68926,17.21931 -53.321544,6.68721 -69.615677,-0.47385 -0.597534,-0.26208 -1.774533,2.26476 -1.177291,2.52854 8.066541,3.54514 23.326812,7.66777 37.902344,8.6875 7.287764,0.50986 14.399764,0.24482 20.361324,-1.28711 5.96157,-1.53193 10.80283,-4.34858 13.40039,-8.96485 1.29362,-2.29894 1.1574,-4.70609 0.23829,-6.97461 -0.91911,-2.26852 -2.59265,-4.44348 -4.42383,-6.49414 -1.83119,-2.05065 -3.8257,-3.9756 -5.39453,-5.68945 -1.56884,-1.71385 -2.67699,-3.25039 -2.83399,-4.28516 -0.17683,-1.1655 0.38123,-1.99936 1.43555,-2.84375 1.05432,-0.84438 2.57633,-1.59815 4.05664,-2.39453 1.48031,-0.79638 2.92975,-1.63204 3.85156,-2.78711 1.31904,-1.57733 1.33089,-3.7266 0.38791,-4.93639 0.0597,0.62326 0.41492,1.63417 -2.79429,3.88955 -0.96923,0.68115 -2.4131,1.21318 -3.86328,1.75586 -0.45496,-2.68554 -1.81091,-4.54565 -2.65625,-6.21875 -0.44534,-0.88144 -0.74064,-1.71556 -0.73633,-2.65821 0.004,-0.94264 0.30595,-2.0215 1.15235,-3.39648 0.48708,-0.79126 1.00704,-0.99655 1.65625,-1.30859 0.6492,-0.31205 1.42511,-0.76357 1.88281,-1.86524 0.13744,-0.33081 0.83872,-1.60922 1.31055,-2.85937 0.23591,-0.62508 0.42443,-1.25576 0.45898,-1.84571 0.0345,-0.58994 -0.12476,-1.23739 -0.67773,-1.55859 -0.69956,-0.40635 -1.13815,-1.2182 -1.4961,-2.19922 -0.35795,-0.98102 -0.61651,-2.08727 -1.09765,-2.99219 -0.36333,-0.68332 -0.98671,-1.10599 -1.48438,-1.51757 -0.49766,-0.41159 -0.83783,-0.77129 -0.89648,-1.16993 -0.29687,-2.01757 -0.2293,-3.91089 -0.30078,-5.457027 -0.0357,-0.773069 -0.1023,-1.461429 -0.29688,-2.058593 -0.19458,-0.597164 -0.55022,-1.123745 -1.11914,-1.408203 -0.19724,-0.09862 -0.4415,-0.08004 -0.60352,-0.01367 -0.16201,0.06637 -0.2769,0.161715 -0.38476,0.267578 -0.21572,0.211725 -0.40468,0.485648 -0.60547,0.818359 -0.40158,0.665423 -0.82888,1.563332 -1.24023,2.498047 -0.41136,0.934715 -0.8026,1.901809 -1.11524,2.681639 -0.27967,0.69759 -0.47243,1.17072 -0.55664,1.36133 -0.0207,0.004 -0.0235,0.006 -0.0488,0.01 -0.17042,0.0282 -0.43657,0.0548 -0.7539,0.0762 -0.63468,0.0427 -1.48103,0.0665 -2.32227,0.0781 -1.66676,0.0231 -3.28381,4.2e-4 -3.31445,0 -0.18552,-0.0165 -0.60552,-0.32892 -1.04883,-0.95313 -0.44418,-0.62541 -0.91548,-1.48456 -1.40039,-2.343743 -0.48492,-0.859188 -0.98362,-1.719867 -1.53516,-2.382812 -0.55153,-0.662946 -1.213758,-1.199844 -2.027341,-1.101563 -0.333963,0.04034 -0.464979,0.206474 -0.626953,0.388672 -0.161975,0.182198 -0.31878,0.417257 -0.472657,0.714844 -0.307753,0.595174 -0.597771,1.436644 -0.757812,2.529297 -0.320082,2.185305 -0.112579,5.366255 1.576172,9.476555 3.145101,7.65498 -0.0448,15.81569 -0.929688,22.07813 -1.386409,-3.82827 -1.217577,-8.43554 -2.107422,-12.88477 -1.016661,-5.0833 -3.54192,-9.57679 -4.519531,-14.46484 -0.181834,-0.90917 -0.02478,-0.93064 0.04687,-1.57617 0.07117,-0.64122 -0.0058,-1.63902 -0.648437,-4.046874 -0.212331,-1.288596 -1.069867,-3.312536 -2.166016,-4.998047 -0.550822,-0.84698 -1.15475,-1.597747 -1.8125,-2.101562 -0.328875,-0.251908 -0.696992,-0.447127 -1.074219,-0.533203 z m 0.338311,0.957263 c 5.686807,5.027069 -1.500415,10.230186 3.516198,6.462357 1.021229,1.936354 0.725295,2.884839 0.852523,4.150689 -0.05161,0.46497 -0.699162,4.30476 -0.489842,5.35134 1.018606,5.09304 3.269962,7.48637 4.245547,12.36431 0.981706,4.90853 -0.275517,10.53177 2.162693,14.9911 8.666289,-17.31735 13.744939,-10.92967 7.511639,-15.35963 -2.67661,-1.90224 -2.54965,-11.34002 -2.00035,-15.42062 -5.233677,4.43352 -2.470172,-6.302493 -2.523434,-7.026099 -0.0096,-0.129875 0.173753,-0.08177 -0.002,-0.06055 2.242824,0.816575 4.077994,4.724159 4.301334,6.053359 0.14294,0.85073 0.7429,0.66972 1.51117,0.73375 0.0117,10e-4 0.0234,0.002 0.0352,0.002 0,0 1.67231,0.0236 3.37304,0 0.85037,-0.0118 1.70596,-0.0351 2.375,-0.0801 0.33452,-0.0225 0.6213,-0.0497 0.85157,-0.0879 0.11513,-0.0191 0.21548,-0.0397 0.31835,-0.0742 0.10288,-0.0345 1.63718,-0.0229 1.78299,-0.31445 0.13371,-0.26743 -1.04362,-0.81892 -0.7322,-1.5957 0.31142,-0.77679 0.70025,-1.736013 1.10351,-2.652344 0.7052,-1.602397 1.02986,-2.759696 1.39547,-3.161915 1.73272,1.180636 1.89351,4.916239 0.89791,7.885509 0.58048,-0.5157 3.94116,5.14664 4.59082,6.92714 0.26267,0.71989 -0.62078,2.5474 -0.35727,2.65743 0.82687,0.34526 0.14218,0.21792 0.74096,-0.74202 1.94892,-1.07102 0.98402,1.46167 0.62469,2.31472 -0.43499,1.15255 -0.83044,2.48844 -1.29883,2.83007 -5.56359,4.05797 -5.544,-2.89451 -7.35085,-0.7023 -1.30494,1.58326 4.5102,2.71637 3.88405,3.73356 -0.9145,1.4856 -1.29549,2.76229 -1.30078,3.91796 -0.005,1.15566 0.36335,2.16246 0.84375,3.11328 0.94733,1.87497 2.29152,3.59255 2.64649,6.17578 -3.69605,1.32591 -7.99099,2.67534 -9.75781,6.20898 -0.60094,1.20188 -0.38364,2.5205 0.14062,3.8125 0.52426,1.29201 1.36003,2.61573 2.14258,3.97657 0.78255,1.36084 1.51099,2.75496 1.8457,4.12695 0.33471,1.372 0.29529,2.7019 -0.44336,4.07031 -0.33949,0.62893 -1.14002,1.17153 -2.41211,1.54883 -1.27208,0.3773 -2.9799,0.58328 -4.99804,0.6211 -4.0363,0.0756 -9.317643,-0.51347 -15.011726,-1.58593 -11.388166,-2.14494 -24.448532,-6.22725 -32.6875,-10.68361 -10.421462,-7.53991 24.4552,-15.1332 22.420422,-17.35792 l -5.643878,-3.21506 c 0.253037,-2.5546 6.165011,-10.55601 3.648556,-16.88627 -17.885467,5.10449 -5.190624,-0.18619 -13.314702,3.0705 -3.161579,1.26737 -6.458289,-3.93735 -9.411179,-8.4921 -0.473902,-0.73098 -0.666671,-2.08371 0.453122,-2.29493 1.859095,-0.37536 1.055907,2.36017 1.325292,1.85273 1.022581,-1.92621 2.404411,-2.2991 2.851505,-2.2991 6.990824,0 11.539954,0.24866 15.954062,-2.567275 0.134146,-0.08558 0.609676,-0.04484 1.142578,0.002 0.532903,0.0468 1.162885,0.130729 1.791016,0.199218 0.628131,0.06849 1.251514,0.123169 1.800781,0.107422 0.549267,-0.01575 1.132501,0.01298 1.439453,-0.439453 1.580311,-2.329293 0.593756,-8.479375 3.21527,-6.161988 z M 115.75977,136.4492 c -1.5963,0.59808 -2.73255,1.26957 -3.50196,2.04101 -0.7694,0.77144 -1.15567,1.6597 -1.20508,2.56836 -0.0988,1.81733 1.0093,3.62677 2.3379,5.46875 1.32859,1.84198 2.92429,3.72473 3.97656,5.53321 1.05227,1.80847 1.5375,3.46278 0.86523,4.98828 -5.1183,11.43767 -45.289158,2.50973 -59.874243,-5.24533 -0.577208,-0.30615 -1.433233,2.19057 -0.856224,2.49728 5.790181,3.07871 15.842833,6.16901 26.21875,8.01758 8.606611,1.53335 17.417357,2.20862 24.189457,1.24805 5.45464,-0.77372 9.67242,-2.61419 11.23632,-6.11329 6.7e-4,-6.6e-4 0.001,-0.001 0.002,-0.002 0.85199,-1.93332 0.20212,-3.96754 -0.91797,-5.89258 -1.12009,-1.92503 -2.73486,-3.82061 -4.0293,-5.61523 -1.29444,-1.79463 -2.22383,-3.4793 -2.15039,-4.83008 0.0367,-0.67539 0.2899,-1.2902 0.91406,-1.91601 0.26967,-0.27039 1.27862,-1.06688 1.70186,-1.33118 -0.30833,0.43938 -0.89611,1.43481 -1.02998,1.89758 -0.29492,1.01949 -0.16514,2.06103 0.22266,3.07031 0.77559,2.01858 2.54456,3.99368 4.36718,6.05664 1.82262,2.06297 3.70505,4.20329 4.74414,6.37696 1.0391,2.17366 1.27661,4.31407 -0.13086,6.66797 -7.05653,11.81779 -48.726345,4.27331 -64.731411,-4.68346 -0.569782,-0.31834 -1.573811,2.16563 -1.004913,2.48556 5.989366,3.35178 15.735538,6.88338 26.009765,8.55922 10.059042,1.64075 20.606309,2.10973 28.599609,0.60352 5.5753,-1.05058 9.95885,-3.05568 11.98633,-6.45117 1.57684,-2.63715 1.30374,-5.24963 0.17383,-7.61328 -1.12992,-2.36366 -3.07439,-4.54506 -4.89649,-6.60742 -1.82209,-2.06237 -3.51637,-4.0174 -4.18359,-5.75391 -0.33361,-0.86826 -0.42097,-1.66028 -0.19727,-2.43359 0.22371,-0.77332 0.77147,-1.55953 1.82227,-2.3711 0.4472,-0.3454 3.02702,-2.16336 2.14165,-1.83276 -0.70607,0.26365 -2.07397,0.35573 -2.79989,0.61211 z"
         id="path1"
         sodipodi:nodetypes="cssssssssssssssscscsssssssscscssssssccsssssssssscscscsssscssssccssssssscccccsssssssscssscssccsccsscscscsccsssscssccssssssscscssssssssscccsssssscsssscsssscccssccsssscsssscccsscssssssc"
         inkscape:export-filename="..\src\assets\LogoComplete.svg"
         inkscape:export-xdpi="120"
         inkscape:export-ydpi="120" />
      <path
         style="color:#000000;fill:#79c3ff;stroke-linecap:round;stroke-linejoin:bevel;-inkscape-stroke:none"
         d="m 77.794922,91.363281 c -0.570685,0.180295 -0.9378,0.720202 -1.128906,1.419922 -0.191106,0.699721 -0.249281,1.617688 -0.1875,2.818359 0.01367,0.276308 0.249118,0.488996 0.52539,0.47461 -0.288739,-1.366924 -0.04129,-4.358207 1.09375,-4.050371 1.099909,0.298307 2.221972,3.311931 2.973154,2.655279 0.207466,-0.181847 0.468177,-1.033923 0.286607,-1.241632 -0.647593,-0.740106 -1.248763,-1.307884 -1.824219,-1.679687 -0.575456,-0.371804 -1.167596,-0.57678 -1.738281,-0.396485 z"
         id="path12"
         sodipodi:nodetypes="ssccsccsss" />
      <path
         d="m 66.539671,144.24613 q -0.693253,-0.70131 -0.975391,-1.24141 -0.282138,-0.54815 -0.282138,-1.16885 0,-0.93509 0.564276,-1.75732 0.572337,-0.82223 1.523545,-1.3059 0.959269,-0.48366 2.055576,-0.48366 1.241407,0 1.910477,0.51591 0.66907,0.51591 0.66907,1.45905 0,0.45142 -0.241833,0.93509 -0.241832,0.48366 -0.66907,0.90284 -0.290199,0.2902 -0.540092,0.44336 -0.249894,0.1451 -0.419177,0.1451 -0.209588,0 -0.209588,-0.32244 0,0.008 0.03225,-0.2499 0.04837,-0.37887 0.04837,-0.67713 0,-0.41917 -0.128977,-0.83835 -0.120916,-0.42724 -0.322444,-0.70938 -0.193466,-0.29019 -0.370809,-0.29019 -0.08867,0 -0.201528,0.13703 -0.217649,0.22571 -0.338565,0.56428 -0.120916,0.3305 -0.120916,0.6207 0,0.36275 0.104794,0.67713 0.104794,0.30633 0.362749,0.62877 0.257954,0.32244 0.685192,0.70937 0.677131,0.61265 1.03988,1.07213 0.370809,0.45948 0.540092,0.91896 0.169283,0.45142 0.169283,0.98345 0,0.93509 -0.491726,1.80569 -0.491726,0.87059 -1.305896,1.41069 -0.806108,0.53203 -1.668644,0.53203 -0.822231,0 -1.604156,-0.35469 -0.781925,-0.35469 -1.467117,-1.0157 -0.709376,-0.70131 -0.709376,-1.2414 0,-0.33051 0.314383,-0.64489 0.322443,-0.32244 0.789986,-0.54815 0.475604,-0.22571 0.798047,-0.22571 0.185405,0 0.314383,0.0967 0.128977,0.0887 0.22571,0.31438 0.104794,0.21765 0.201527,0.59652 0.153161,0.54009 0.282138,0.80611 0.128977,0.25795 0.362749,0.51591 0.241832,0.24183 0.507848,0.24183 0.322443,0 0.507848,-0.24989 0.185405,-0.25796 0.185405,-0.70132 0,-0.69325 -0.491726,-1.3865 -0.145099,-0.23377 -0.322443,-0.41112 -0.169283,-0.1854 -0.749681,-0.70131 -0.177344,-0.1451 -0.564276,-0.50785 z m 9.310552,3.32117 q 0.22571,0.661 0.854475,0.661 0.443359,0 0.82223,-0.39499 0.386932,-0.40305 0.612643,-1.08018 0.233771,-0.6852 0.233771,-1.43488 0,-0.59652 -0.09673,-1.03182 -0.08867,-0.43529 -0.201527,-0.43529 -0.08061,0 -0.411115,0.42723 -0.330505,0.42724 -0.661009,0.99152 -0.677131,1.0963 -1.023758,1.93466 -0.08867,0.21765 -0.128977,0.36275 z m 0.620703,-3.45015 0.249894,-0.46754 q 0.354688,-0.6207 0.652948,-1.03182 0.306321,-0.41918 0.540092,-0.61264 0.233772,-0.19347 0.556215,-0.31438 0.266016,-0.1048 0.580398,-0.1048 0.612643,0 1.080185,0.36275 0.475604,0.36275 0.725498,1.03988 0.257955,0.67713 0.257955,1.55579 0,1.26559 -0.572337,2.43445 -0.564276,1.16079 -1.491301,1.87823 -0.918963,0.71744 -1.902416,0.71744 -0.572337,0 -0.959269,-0.24184 -0.378871,-0.24183 -0.701314,-0.83029 l -0.05643,0.13704 -0.04837,0.17734 q -0.52397,1.68477 -0.838353,2.47476 -0.306321,0.79804 -0.532031,0.97539 -0.177344,0.16928 -0.411116,0.16928 -0.459481,0 -0.717436,-0.45142 -0.257955,-0.45142 -0.257955,-1.26559 0,-0.88672 0.193466,-2.12813 0.193466,-1.2414 0.532032,-2.53118 0.346626,-1.28977 0.765803,-2.34577 0.274077,-0.64489 0.604581,-1.12855 0.330505,-0.48367 0.628765,-0.70132 0.217649,-0.12898 0.467543,-0.12898 0.370809,0 0.572336,0.20153 0.201528,0.20153 0.201528,0.57234 0,0.31438 -0.06449,0.69325 -0.04837,0.37081 -0.08867,0.85448 z m 7.988534,2.8375 -0.03225,0.16123 q 0,0.13703 -0.03224,0.39499 -0.03224,0.39499 -0.08867,0.64489 -0.05643,0.24989 -0.169283,0.41917 -0.112855,0.16122 -0.306321,0.34663 -0.588459,0.54009 -1.184979,0.54009 -0.483665,0 -0.717437,-0.35469 -0.22571,-0.35468 -0.22571,-1.14467 0,-0.62877 0.137038,-1.54773 0.1451,-0.92702 0.346627,-1.66058 l 0.06449,-0.20959 q 0,-0.0484 0.04837,-0.20153 0.29826,-1.0963 0.548154,-1.62028 0.249893,-0.53203 0.604581,-0.85447 0.314382,-0.24989 0.709376,-0.24989 0.572337,0 0.693253,0.69325 0.112855,-0.0967 0.217649,-0.22571 0.233772,-0.28214 0.362749,-0.37081 0.128977,-0.0967 0.29826,-0.0967 0.693253,0 0.693253,1.37038 0,0.74968 -0.161222,1.451 -0.161221,0.70131 -0.411115,1.14467 -0.241832,0.44336 -0.483665,0.44336 -0.266016,0 -0.266016,-1.00764 0,-0.53203 -0.06449,-0.83029 -0.05643,-0.30632 -0.185405,-0.4756 -0.241833,0.45142 -0.314382,2.06364 -0.05643,0.93508 -0.08061,1.17691 z m 3.804832,2.53925 q -0.362749,-0.0242 -0.661009,-0.33051 -0.29826,-0.32244 -0.427238,-0.69325 -0.120916,-0.37887 -0.120916,-0.97539 0,-1.33008 0.491726,-2.99873 0.499787,-1.6767 1.128552,-2.42638 0.249893,-0.31439 0.693253,-0.31439 0.467543,0 0.749681,0.42724 0.290199,0.42724 0.290199,1.12049 0,1.02376 -0.29826,2.40221 -0.290199,1.37038 -0.822231,2.85362 -0.209588,0.59652 -0.515909,0.80611 -0.209588,0.12898 -0.491726,0.12898 z m 0.96733,-8.10139 q -0.757742,-0.0242 -0.757742,-0.91091 0,-0.44336 0.217649,-1.02375 0.22571,-0.58846 0.507848,-0.8706 0.1451,-0.15316 0.290199,-0.21765 0.153161,-0.0645 0.386932,-0.0645 0.403055,0 0.58846,0.20153 0.193466,0.19346 0.193466,0.65295 0,0.57233 -0.201528,1.08824 -0.193466,0.50785 -0.52397,0.83029 -0.330504,0.31439 -0.677131,0.31439 z m 5.433171,3.76452 0.483665,-0.56427 q 0.733558,-0.81417 1.160796,-1.20917 0.435298,-0.40305 0.773864,-0.58039 0.346627,-0.17735 0.701314,-0.17735 0.572337,0 0.806109,0.30632 0.233771,0.30632 0.233771,1.06407 0,0.31438 -0.06449,0.92702 -0.09673,0.81417 -0.09673,1.53161 0,0.8061 0.08061,1.30589 0.05643,0.30632 0.169283,0.61264 0.08061,0.2902 0.08061,0.395 0,0.12897 -0.09673,0.20152 -0.249894,0.21765 -0.661009,0.37888 -0.411115,0.16122 -0.693253,0.16122 -0.459482,0 -0.838353,-0.31438 -0.37081,-0.31439 -0.580398,-0.8706 -0.201527,-0.55622 -0.201527,-1.25753 0,-0.46754 0.09673,-1.10437 l -0.03224,-0.0322 q -0.346627,0.38693 -0.564276,0.61264 -0.209589,0.22571 -0.394993,0.42724 -0.902842,1.03181 -1.531606,1.86211 -0.241833,0.32244 -0.44336,0.56427 -0.29826,0.29826 -0.677131,0.29826 -0.515909,0 -0.838353,-0.38693 -0.322443,-0.38693 -0.322443,-0.99957 0,-0.37888 0.08867,-0.92703 0.08867,-0.54815 0.233771,-1.16886 0.153161,-0.62876 0.354688,-1.28977 0.209588,-0.66101 0.451421,-1.25753 0.370809,-0.99151 0.902841,-1.54773 0.362749,-0.36275 0.878658,-0.36275 0.838353,0 0.838353,1.08825 0,0.79805 -0.330505,2.28129 z m 10.745427,0.33051 v 0.0322 l -0.0322,-0.0322 q -0.0484,0.0161 -0.12897,0.0161 -0.15316,0.0161 -0.38694,0.0161 -0.41111,0 -0.41111,-0.15316 0,-0.0806 0.10479,-0.19347 0.30632,-0.34662 0.52397,-0.9109 0.22571,-0.56427 0.2499,-1.02376 0,-0.11285 0.0161,-0.20152 0.008,-0.0323 0.008,-0.0564 0.008,-0.0242 0.008,-0.0403 0,-0.11285 -0.15316,-0.11285 -0.31438,0 -0.96733,0.67713 -0.41111,0.4353 -0.77386,1.03182 -0.36275,0.59652 -0.56428,1.19304 -0.20153,0.59652 -0.20153,1.07212 0,0.46755 0.23377,0.46755 0.22572,0 1.13662,-0.75775 0.41111,-0.35468 1.33814,-1.02375 z m -0.41112,1.71701 -0.21765,0.16122 q -0.0242,0.0242 -0.0806,0.0645 -0.0484,0.0403 -0.12898,0.10479 -1.39456,1.08825 -2.19261,1.53161 -0.78999,0.44336 -1.37845,0.44336 -0.65294,0 -1.055997,-0.47561 -0.394994,-0.4756 -0.394994,-1.27365 0,-0.99151 0.556211,-2.04751 0.56428,-1.06407 1.48324,-1.95079 0.91897,-0.88671 2.01527,-1.41875 1.09631,-0.54009 2.12007,-0.54009 1.00764,0 1.53161,0.34663 0.53203,0.34662 0.53203,1.03988 0,0.5804 -0.45948,1.43487 0.3305,0.0242 0.48366,0.20959 0.15316,0.17734 0.15316,0.56427 0,0.62877 -0.25795,1.75732 -0.25796,1.12049 -0.62877,2.0717 -0.45142,1.2011 -1.28977,2.08782 -0.63683,0.66907 -1.57997,1.14467 -0.94315,0.48367 -1.62028,0.48367 -0.56428,0 -1.00764,-0.45142 -0.44336,-0.45142 -0.44336,-1.0157 0,-0.37887 0.19347,-0.78998 0.19347,-0.40306 0.49979,-0.69326 0.62876,-0.63682 1.84598,-1.20916 0.22571,-0.11286 0.34663,-0.11286 0.0484,0 0.0887,0.0403 0.0403,0.0403 0.0403,0.0887 0,0.0564 -0.0967,0.21765 -0.24184,0.41112 -0.42724,1.04794 -0.18541,0.64489 -0.18541,1.11243 0,0.54816 0.16929,0.54816 0.0887,0 0.21765,-0.20153 0.13703,-0.19347 0.24183,-0.44336 0.68519,-1.7412 0.87866,-3.22443 0.0242,-0.21765 0.0484,-0.65295 z"
         id="text1"
         style="font-size:16.5091px;font-family:Forte;-inkscape-font-specification:'Forte, Normal';text-align:center;text-anchor:middle;fill:#4b88a2"
         aria-label="Spring" />
    </g>
  </g>
</svg>
