<?xml version="1.0" encoding="UTF-8" standalone="no"?>
<!-- Creator: CorelDRAW -->

<svg
   xml:space="preserve"
   width="2048"
   height="2048"
   style="clip-rule:evenodd;fill-rule:evenodd;image-rendering:optimizeQuality;shape-rendering:geometricPrecision;text-rendering:geometricPrecision"
   viewBox="0 0 2048 2048"
   version="1.1"
   id="svg12"
   xmlns="http://www.w3.org/2000/svg"
   xmlns:svg="http://www.w3.org/2000/svg">
 <defs
   id="defs1"><style
     type="text/css"
     id="style1">
   <![CDATA[
    .fil2 {fill:none}
    .fil3 {fill:none;fill-rule:nonzero}
    .fil1 {fill:#0277BD}
    .fil0 {fill:#0288D1}
    .fil4 {fill:#D1C2A9;fill-rule:nonzero}
    .fil5 {fill:#D7C8AC;fill-rule:nonzero}
   ]]>
  </style><clipPath
     id="id0">
    <path
   d="m 1024,-0.0011811 c 565.539,0 1024,458.4620011 1024,1023.9999811 0,565.539 -458.462,1024 -1024,1024 -565.539,0 -1024,-458.462 -1024,-1024 C 0,458.45982 458.462,-0.0011811 1024,-0.0011811 Z"
   id="path1" />
   </clipPath></defs>
 <g
   id="Layer_x0020_1">
  <metadata
   id="CorelCorpID_0Corel-Layer" />
  <path
   class="fil0"
   d="m 1024,-0.0011811 c 565.539,0 1024,458.4620011 1024,1023.9999811 0,565.539 -458.462,1024 -1024,1024 -565.539,0 -1024,-458.462 -1024,-1024 C 0,458.45982 458.462,-0.0011811 1024,-0.0011811 Z"
   id="path2" />
  <g
   clip-path="url(#id0)"
   id="g3">
   <g
   id="_300478544">
    <g
   id="g2">
     <polygon
   id="_2996303281"
   class="fil1"
   points="2466.41,1761.32 2468.29,1763.76 2470.09,1766.26 2471.82,1768.84 2473.48,1771.48 2475.07,1774.18 2476.58,1776.95 2478.02,1779.77 2479.38,1782.66 2480.68,1785.61 2481.89,1788.61 2483.04,1791.67 2484.1,1794.78 2485.1,1797.94 2486.02,1801.15 2486.86,1804.41 2487.63,1807.72 2488.32,1811.07 2488.93,1814.46 2489.47,1817.9 1353.59,682.017 1353.05,678.58 1352.44,675.185 1351.75,671.833 1350.98,668.527 1350.13,665.267 1349.22,662.056 1348.22,658.894 1347.15,655.784 1346.01,652.727 1344.79,649.726 1343.5,646.78 1342.14,643.893 1340.7,641.065 1339.19,638.299 1337.6,635.594 1335.94,632.956 1334.21,630.382 1332.41,627.876 1330.53,625.439 1328.58,623.073 2464.47,1758.96 " />
     <polygon
   id="_299630352"
   class="fil1"
   points="2489.89,1821.05 2490.25,1824.23 2490.55,1827.45 2490.78,1830.7 2490.94,1833.98 2491.04,1837.29 2491.08,1840.63 2491.05,1843.99 2490.95,1847.38 2490.79,1850.79 2490.56,1854.23 2490.27,1857.68 2489.91,1861.16 2489.49,1864.65 2489,1868.16 2488.44,1871.68 2487.81,1875.22 2487.12,1878.77 2486.36,1882.33 2485.53,1885.89 2484.63,1889.47 2483.67,1893.05 2482.64,1896.63 2481.53,1900.22 2480.36,1903.81 2479.13,1907.41 2477.82,1911 2476.44,1914.58 2474.99,1918.17 2473.48,1921.74 2471.89,1925.31 2470.23,1928.88 1334.35,792.994 1336.01,789.432 1337.59,785.861 1339.11,782.284 1340.56,778.7 1341.94,775.113 1343.24,771.524 1344.48,767.932 1345.65,764.342 1346.75,760.752 1347.79,757.166 1348.75,753.585 1349.65,750.01 1350.48,746.443 1351.24,742.884 1351.93,739.336 1352.56,735.799 1353.11,732.277 1353.61,728.768 1354.03,725.277 1354.39,721.802 1354.68,718.347 1354.91,714.912 1355.07,711.5 1355.17,708.11 1355.2,704.747 1355.16,701.409 1355.06,698.099 1354.9,694.818 1354.67,691.568 1354.37,688.351 1354.01,685.166 1353.59,682.017 2489.47,1817.9 " />
     <polygon
   id="_299631792"
   class="fil1"
   points="2097.42,1680.21 961.541,544.33 958.95,541.518 2094.83,1677.4 " />
     <path
   id="_299631096"
   class="fil1"
   d="M 2148.21,1794.9 Z M 1012.33,659.02 Z" />
     <polygon
   id="_299632560"
   class="fil1"
   points="2148.8,1799.22 2149.32,1803.54 2149.76,1807.84 2150.12,1812.12 2150.41,1816.38 2150.63,1820.62 2150.77,1824.84 2150.84,1829.04 2150.83,1833.21 2150.75,1837.36 2150.6,1841.48 2150.39,1845.57 2150.1,1849.63 2149.74,1853.66 2149.32,1857.66 2148.82,1861.62 2148.26,1865.55 2147.64,1869.44 2146.94,1873.28 2146.19,1877.09 2145.37,1880.86 2144.48,1884.58 2143.54,1888.26 2142.53,1891.89 2141.46,1895.47 2140.33,1899.01 2139.14,1902.49 2137.89,1905.92 2136.58,1909.3 2135.22,1912.62 2133.79,1915.88 2132.31,1919.09 996.432,783.206 997.912,779.999 999.334,776.735 1000.7,773.414 1002.01,770.037 1003.26,766.607 1004.45,763.124 1005.58,759.59 1006.65,756.006 1007.66,752.376 1008.6,748.698 1009.49,744.976 1010.31,741.21 1011.06,737.402 1011.76,733.554 1012.38,729.666 1012.94,725.74 1013.43,721.778 1013.86,717.782 1014.22,713.753 1014.51,709.692 1014.72,705.599 1014.87,701.48 1014.95,697.332 1014.95,693.158 1014.89,688.96 1014.75,684.739 1014.53,680.497 1014.24,676.235 1013.88,671.953 1013.44,667.655 1012.92,663.342 1012.33,659.014 2148.21,1794.9 " />
     <polygon
   id="_299631864"
   class="fil1"
   points="2699.6,1987.73 2701.49,1990.15 2703.28,1992.63 2704.98,1995.16 2706.59,1997.74 2708.1,2000.38 2709.52,2003.07 2710.85,2005.8 2712.08,2008.59 2713.23,2011.42 2714.28,2014.29 2715.24,2017.21 2716.11,2020.16 2716.88,2023.16 2717.57,2026.2 2718.17,2029.27 2718.68,2032.37 2719.09,2035.51 2719.42,2038.68 2719.66,2041.88 2719.82,2045.11 2719.88,2048.37 2719.85,2051.65 2719.74,2054.96 2719.54,2058.28 2719.26,2061.63 2718.88,2065 2718.42,2068.38 2717.88,2071.78 2717.25,2075.19 1581.37,939.311 1582,935.898 1582.54,932.499 1583,929.115 1583.38,925.748 1583.66,922.4 1583.86,919.073 1583.97,915.768 1584,912.487 1583.94,909.231 1583.78,906.002 1583.54,902.801 1583.21,899.63 1582.8,896.49 1582.29,893.385 1581.69,890.313 1581,887.278 1580.23,884.281 1579.36,881.324 1578.4,878.407 1577.34,875.533 1576.2,872.703 1574.97,869.919 1573.64,867.184 1572.22,864.496 1570.71,861.859 1569.1,859.274 1567.4,856.744 1565.61,854.268 1563.72,851.849 1561.74,849.49 2697.62,1985.37 " />
     <polygon
   id="_299632320"
   class="fil1"
   points="2099.76,1682.86 2102.05,1685.59 2104.31,1688.38 2106.53,1691.24 2108.71,1694.18 2110.85,1697.18 2112.95,1700.24 2115,1703.37 2117,1706.57 2118.96,1709.83 2120.87,1713.15 2122.74,1716.53 2124.55,1719.97 2126.32,1723.46 2128.03,1727.01 2129.69,1730.62 2131.3,1734.28 2132.85,1738 2134.34,1741.77 2135.78,1745.59 2137.17,1749.45 2138.49,1753.37 2139.75,1757.33 2140.95,1761.34 2142.09,1765.39 2143.16,1769.48 2144.17,1773.62 2145.11,1777.8 2145.99,1782.02 2146.8,1786.27 2147.54,1790.57 2148.21,1794.9 1012.33,659.014 1011.66,654.684 1010.92,650.391 1010.11,646.136 1009.23,641.918 1008.29,637.739 1007.28,633.602 1006.2,629.507 1005.07,625.454 1003.87,621.447 1002.61,617.484 1001.28,613.57 999.903,609.703 998.463,605.885 996.968,602.118 995.416,598.402 993.81,594.74 992.149,591.132 990.437,587.579 988.672,584.083 986.857,580.645 984.993,577.264 983.081,573.945 981.12,570.688 979.115,567.492 977.064,564.361 974.969,561.295 972.832,558.295 970.653,555.362 968.433,552.498 966.173,549.703 963.876,546.981 961.541,544.33 2097.42,1680.21 " />
     <polygon
   id="_299632272"
   class="fil1"
   points="2393.13,2015.71 2390.11,2017.37 2387.08,2018.95 2384.03,2020.44 2380.97,2021.84 2377.91,2023.15 2374.83,2024.38 2371.75,2025.51 2368.66,2026.55 2365.57,2027.5 2362.47,2028.36 2359.38,2029.12 2356.28,2029.79 2353.18,2030.37 2350.09,2030.85 2347,2031.23 2343.92,2031.51 2340.85,2031.69 2337.78,2031.78 2334.72,2031.76 2331.68,2031.64 2328.64,2031.42 2325.62,2031.1 2322.62,2030.68 2319.63,2030.15 2316.66,2029.51 2313.71,2028.77 2310.78,2027.92 2307.87,2026.96 2304.99,2025.9 2302.13,2024.72 2299.3,2023.44 1163.42,887.554 1166.25,888.839 1169.11,890.014 1171.99,891.08 1174.9,892.037 1177.83,892.886 1180.78,893.627 1183.75,894.263 1186.74,894.793 1189.74,895.22 1192.76,895.541 1195.8,895.761 1198.84,895.877 1201.9,895.894 1204.97,895.81 1208.04,895.626 1211.12,895.344 1214.21,894.963 1217.3,894.485 1220.4,893.911 1223.49,893.242 1226.59,892.478 1229.69,891.621 1232.78,890.671 1235.87,889.628 1238.95,888.494 1242.03,887.271 1245.09,885.957 1248.15,884.555 1251.2,883.065 1254.23,881.487 1257.25,879.824 1260.26,878.075 2396.14,2013.96 " />
     <polygon
   id="_299632248"
   class="fil1"
   points="2467.35,2203.7 1331.47,1067.81 1333.64,1070.05 2469.52,2205.93 " />
     <polygon
   id="_299632440"
   class="fil1"
   points="2296.51,2022.05 2293.78,2020.56 2291.13,2018.99 2288.54,2017.34 2286.02,2015.6 2283.58,2013.77 2281.2,2011.86 2278.9,2009.88 2276.66,2007.81 2274.5,2005.66 1138.62,869.782 1140.78,871.926 1143.02,873.993 1145.32,875.981 1147.7,877.888 1150.14,879.713 1152.66,881.455 1155.24,883.112 1157.9,884.682 1160.63,886.163 1163.42,887.554 2299.3,2023.44 " />
     <path
   id="_299632584"
   class="fil1"
   d="M 1900.32,1830.91 Z M 764.44,695.03 Z" />
     <polygon
   id="_299632128"
   class="fil1"
   points="1686.84,2074.69 1684.2,2072.87 1681.57,2070.99 1678.96,2069.03 1676.37,2067.01 1673.8,2064.92 1671.25,2062.76 1668.73,2060.53 1666.23,2058.24 530.345,922.354 532.846,924.647 535.372,926.874 537.92,929.035 540.489,931.126 543.08,933.151 545.687,935.107 548.314,936.992 550.958,938.806 553.615,940.549 1689.5,2076.43 " />
     <polygon
   id="_299633280"
   class="fil1"
   points="1705.43,2409.23 1705.42,2409.76 1705.41,2410.03 569.528,1274.15 569.536,1273.88 569.549,1273.35 569.565,1272.92 1705.45,2408.8 " />
     <polygon
   id="_299633184"
   class="fil1"
   points="1942.03,2658.92 1929.34,2655.15 1916.84,2651.1 1904.55,2646.76 1892.48,2642.14 1880.66,2637.24 1869.09,2632.05 1857.79,2626.58 1846.77,2620.84 1836.05,2614.81 1825.65,2608.5 1815.57,2601.91 1805.84,2595.04 1796.46,2587.88 1787.46,2580.46 651.576,1444.57 660.58,1452 669.957,1459.15 679.692,1466.02 689.769,1472.61 700.173,1478.92 710.892,1484.95 721.909,1490.7 733.209,1496.17 744.779,1501.35 756.603,1506.26 768.668,1510.88 780.957,1515.22 793.457,1519.27 806.153,1523.04 819.029,1526.53 1954.91,2662.41 " />
     <polygon
   id="_299633088"
   class="fil1"
   points="2109.98,2681.9 2104.88,2681.86 2099.77,2681.78 2094.66,2681.66 2089.56,2681.5 2084.45,2681.3 2079.35,2681.06 2074.25,2680.78 2069.16,2680.47 2064.07,2680.11 2058.99,2679.72 2053.91,2679.28 2048.84,2678.81 2043.78,2678.3 2038.72,2677.75 2033.68,2677.15 2028.65,2676.52 2023.62,2675.86 2018.61,2675.15 2013.61,2674.4 2008.63,2673.62 2003.66,2672.79 1998.7,2671.93 1993.76,2671.03 1988.84,2670.08 1983.93,2669.1 1979.05,2668.09 1974.18,2667.03 1969.33,2665.93 1964.5,2664.8 1959.69,2663.62 1954.91,2662.41 819.029,1526.53 823.814,1527.74 828.621,1528.91 833.449,1530.05 838.297,1531.15 843.166,1532.2 848.053,1533.22 852.96,1534.2 857.883,1535.14 862.822,1536.05 867.778,1536.91 872.748,1537.73 877.732,1538.52 882.731,1539.27 887.741,1539.97 892.764,1540.64 897.798,1541.27 902.841,1541.86 907.895,1542.41 912.957,1542.93 918.028,1543.4 923.105,1543.83 928.189,1544.23 933.278,1544.59 938.372,1544.9 943.471,1545.18 948.572,1545.42 953.676,1545.62 958.782,1545.77 963.888,1545.9 968.995,1545.98 974.1,1546.02 979.204,1546.02 2115.09,2681.9 " />
     <polygon
   id="_299632824"
   class="fil1"
   points="2130.63,1922.53 2128.89,1925.9 2127.07,1929.2 2125.2,1932.42 2123.26,1935.58 2121.25,1938.66 2119.19,1941.66 2117.06,1944.58 2114.87,1947.42 2112.63,1950.18 2110.32,1952.86 2107.96,1955.45 2105.53,1957.96 2103.06,1960.38 2100.52,1962.7 2097.93,1964.94 2095.29,1967.08 2092.59,1969.13 2089.84,1971.08 2087.03,1972.94 2084.18,1974.69 2081.27,1976.35 2078.32,1977.9 2075.31,1979.34 2072.26,1980.69 2069.16,1981.92 2066.01,1983.04 2062.81,1984.06 2059.57,1984.96 2056.29,1985.74 2052.96,1986.42 2049.59,1986.97 913.711,851.088 917.082,850.534 920.409,849.862 923.694,849.075 926.932,848.174 930.127,847.16 933.275,846.036 936.375,844.803 939.428,843.461 942.434,842.014 945.389,840.464 948.296,838.81 951.151,837.055 953.955,835.201 956.705,833.248 959.404,831.2 962.049,829.058 964.639,826.821 967.175,824.494 969.653,822.076 972.075,819.57 974.44,816.979 976.746,814.301 978.993,811.54 981.18,808.698 983.307,805.775 985.372,802.773 987.375,799.695 989.316,796.542 991.192,793.314 993.004,790.015 994.751,786.645 996.432,783.206 2132.31,1919.09 " />
     <polygon
   id="_299632872"
   class="fil1"
   points="2403.69,2164.23 2409.89,2171.14 2415.92,2178.2 2421.78,2185.39 2427.45,2192.72 2432.95,2200.18 2438.26,2207.77 2443.38,2215.49 2448.31,2223.34 2453.04,2231.3 2457.58,2239.38 2461.92,2247.58 2466.05,2255.89 2469.98,2264.31 2473.69,2272.83 2477.2,2281.46 2480.49,2290.19 2483.56,2299.02 2486.41,2307.93 2489.03,2316.95 2491.43,2326.04 2493.59,2335.23 2495.52,2344.5 2497.22,2353.84 2498.67,2363.26 2499.88,2372.76 2500.85,2382.33 2501.57,2391.96 2502.03,2401.66 2502.24,2411.42 1366.36,1275.54 1366.15,1265.78 1365.68,1256.08 1364.97,1246.44 1364,1236.88 1362.79,1227.38 1361.34,1217.96 1359.64,1208.61 1357.71,1199.35 1355.55,1190.16 1353.15,1181.06 1350.53,1172.05 1347.68,1163.13 1344.61,1154.31 1341.32,1145.58 1337.81,1136.95 1334.09,1128.43 1330.17,1120.01 1326.03,1111.7 1321.7,1103.5 1317.16,1095.42 1312.42,1087.45 1307.5,1079.61 1302.37,1071.89 1297.07,1064.3 1291.57,1056.84 1285.9,1049.51 1280.04,1042.32 1274.01,1035.26 1267.8,1028.35 1261.43,1021.58 2397.31,2157.46 " />
     <polygon
   id="_299632920"
   class="fil1"
   points="2468.51,1932.41 2466.74,1935.9 2464.92,1939.34 2463.05,1942.73 2461.13,1946.07 2459.17,1949.35 2457.16,1952.58 2455.11,1955.76 2453.02,1958.88 2450.88,1961.95 2448.71,1964.97 2446.5,1967.92 2444.25,1970.82 2441.96,1973.66 2439.64,1976.44 2437.29,1979.16 2434.91,1981.82 2432.49,1984.42 2430.04,1986.96 2427.57,1989.43 2425.07,1991.84 2422.54,1994.19 2419.99,1996.47 2417.42,1998.69 2414.82,2000.84 2412.21,2002.92 2409.57,2004.93 2406.91,2006.88 2404.24,2008.75 2401.56,2010.56 2398.85,2012.29 2396.14,2013.96 1260.26,878.075 1262.97,876.412 1265.67,874.678 1268.36,872.872 1271.03,870.996 1273.69,869.051 1276.32,867.037 1278.94,864.955 1281.54,862.805 1284.11,860.59 1286.66,858.308 1289.19,855.961 1291.69,853.55 1294.16,851.076 1296.61,848.539 1299.02,845.939 1301.41,843.278 1303.76,840.558 1306.08,837.777 1308.37,834.937 1310.62,832.039 1312.83,829.084 1315,826.071 1317.14,823.002 1319.23,819.879 1321.28,816.701 1323.29,813.47 1325.25,810.185 1327.17,806.848 1329.04,803.46 1330.86,800.021 1332.63,796.533 1334.35,792.994 2470.23,1928.88 " />
     <polygon
   id="_299632968"
   class="fil1"
   points="2102.94,2034.89 2102.55,2034.88 2102.35,2034.87 966.471,898.991 966.669,898.999 967.059,899.012 967.308,899.027 2103.19,2034.91 " />
     <polygon
   id="_299632728"
   class="fil1"
   points="2716.6,2078.31 2715.88,2081.43 2715.09,2084.57 2714.22,2087.71 2713.29,2090.87 2712.28,2094.03 2711.2,2097.19 2710.06,2100.36 2708.84,2103.52 2707.55,2106.69 2706.19,2109.86 2704.77,2113.03 2703.27,2116.19 2701.71,2119.35 2700.08,2122.5 2698.38,2125.64 2696.61,2128.77 2694.77,2131.89 2692.87,2135 2690.9,2138.1 2688.86,2141.18 2686.76,2144.24 2684.59,2147.28 2682.36,2150.31 2680.05,2153.31 2677.69,2156.29 2675.26,2159.25 2672.76,2162.18 2670.2,2165.08 2667.58,2167.96 2664.89,2170.81 2662.14,2173.62 1526.25,1037.74 1529.01,1034.92 1531.69,1032.08 1534.32,1029.2 1536.88,1026.3 1539.38,1023.37 1541.81,1020.41 1544.17,1017.43 1546.47,1014.42 1548.71,1011.4 1550.88,1008.36 1552.98,1005.29 1555.02,1002.21 1556.99,999.119 1558.89,996.01 1560.73,992.89 1562.5,989.757 1564.2,986.616 1565.83,983.466 1567.39,980.309 1568.89,977.147 1570.31,973.98 1571.67,970.813 1572.96,967.642 1574.17,964.474 1575.32,961.307 1576.4,958.143 1577.4,954.985 1578.34,951.831 1579.2,948.686 1580,945.55 1580.72,942.425 1581.37,939.311 2717.25,2075.19 " />
     <polygon
   id="_299632800"
   class="fil1"
   points="2659.34,2176.38 2656.52,2179.08 2653.66,2181.72 2650.77,2184.29 2647.86,2186.8 2644.92,2189.24 2641.95,2191.62 2638.97,2193.93 2635.96,2196.18 2632.93,2198.36 2629.88,2200.48 2626.81,2202.53 2623.73,2204.51 2620.63,2206.43 2617.52,2208.28 2614.39,2210.07 2611.26,2211.78 2608.12,2213.43 2604.96,2215.01 2601.81,2216.52 2598.65,2217.96 2595.48,2219.34 2592.32,2220.64 2589.15,2221.88 2585.99,2223.04 2582.82,2224.14 2579.66,2225.16 2576.51,2226.11 2573.36,2227 2570.22,2227.81 2567.1,2228.55 2563.98,2229.21 1428.1,1093.33 1431.21,1092.66 1434.34,1091.92 1437.48,1091.11 1440.63,1090.23 1443.78,1089.28 1446.94,1088.25 1450.1,1087.16 1453.27,1085.99 1456.44,1084.76 1459.6,1083.45 1462.77,1082.08 1465.93,1080.64 1469.08,1079.13 1472.23,1077.55 1475.38,1075.9 1478.51,1074.18 1481.63,1072.4 1484.75,1070.55 1487.84,1068.63 1490.93,1066.65 1494,1064.6 1497.04,1062.48 1500.08,1060.3 1503.09,1058.05 1506.07,1055.74 1509.04,1053.36 1511.98,1050.91 1514.89,1048.41 1517.78,1045.84 1520.63,1043.2 1523.46,1040.5 1526.25,1037.74 2662.14,2173.62 " />
     <polygon
   id="_299633328"
   class="fil1"
   points="2560.57,2229.86 2557.17,2230.43 2553.79,2230.91 2550.42,2231.3 2547.08,2231.61 2543.75,2231.83 2540.45,2231.96 2537.16,2232 2533.91,2231.96 2530.68,2231.82 2527.48,2231.6 2524.3,2231.29 2521.16,2230.9 2518.05,2230.41 2514.98,2229.83 2511.94,2229.16 2508.94,2228.4 2505.98,2227.55 2503.06,2226.61 2500.18,2225.58 2497.35,2224.45 2494.56,2223.24 2491.82,2221.93 2489.13,2220.53 2486.48,2219.03 2483.89,2217.44 2481.35,2215.76 2478.87,2213.99 2476.45,2212.12 2474.08,2210.15 2471.77,2208.09 2469.52,2205.93 1333.64,1070.05 1335.89,1072.21 1338.2,1074.27 1340.56,1076.23 1342.99,1078.1 1345.47,1079.88 1348.01,1081.56 1350.6,1083.15 1353.24,1084.64 1355.94,1086.05 1358.68,1087.35 1361.47,1088.57 1364.3,1089.7 1367.18,1090.73 1370.1,1091.67 1373.06,1092.52 1376.06,1093.28 1379.1,1093.95 1382.17,1094.52 1385.28,1095.01 1388.42,1095.41 1391.59,1095.72 1394.8,1095.94 1398.03,1096.07 1401.28,1096.12 1404.56,1096.07 1407.87,1095.94 1411.2,1095.72 1414.54,1095.42 1417.91,1095.03 1421.29,1094.55 1424.69,1093.98 1428.1,1093.33 2563.98,2229.21 " />
     <polygon
   id="_299633760"
   class="fil1"
   points="2046.21,1987.4 2042.84,1987.71 2039.48,1987.89 2036.13,1987.95 2032.78,1987.89 2029.45,1987.72 2026.14,1987.42 2022.84,1987.01 2019.55,1986.48 2016.28,1985.84 2013.03,1985.09 2009.8,1984.22 2006.59,1983.25 2003.4,1982.16 2000.24,1980.97 1997.1,1979.68 1993.98,1978.27 1990.89,1976.77 1987.83,1975.16 1984.8,1973.46 1981.8,1971.65 1978.83,1969.74 1975.89,1967.74 1972.98,1965.65 1970.11,1963.46 1967.28,1961.17 1964.49,1958.8 1961.73,1956.33 1959.01,1953.78 1956.33,1951.14 820.451,815.255 823.129,817.896 825.846,820.45 828.604,822.915 831.4,825.29 834.233,827.573 837.103,829.764 840.008,831.86 842.946,833.862 845.917,835.766 848.919,837.573 851.951,839.28 855.012,840.888 858.101,842.392 861.217,843.793 864.357,845.09 867.523,846.281 870.712,847.365 873.922,848.339 877.152,849.204 880.403,849.959 883.671,850.6 886.957,851.127 890.258,851.539 893.573,851.834 896.903,852.012 900.245,852.072 903.597,852.009 906.961,851.826 910.332,851.519 913.711,851.088 2049.59,1986.97 " />
     <polygon
   id="_299633520"
   class="fil1"
   points="1785.84,1835.96 1788.23,1838.51 1790.59,1841.12 1792.93,1843.79 1795.23,1846.53 1797.49,1849.32 1799.72,1852.17 1801.92,1855.08 1804.08,1858.05 1806.2,1861.07 1808.27,1864.15 1810.31,1867.28 1812.31,1870.47 1814.26,1873.71 1816.16,1877 1818.03,1880.35 1819.84,1883.75 1821.6,1887.19 1823.32,1890.69 1824.98,1894.23 1826.59,1897.83 690.713,761.943 689.101,758.351 687.438,754.806 685.723,751.31 683.958,747.864 682.144,744.467 680.284,741.122 678.377,737.828 676.425,734.587 674.43,731.399 672.393,728.266 670.314,725.187 668.195,722.164 666.037,719.197 663.843,716.288 661.612,713.437 659.345,710.644 657.045,707.912 654.713,705.239 652.349,702.629 649.955,700.079 647.533,697.593 1783.41,1833.48 " />
     <polygon
   id="_299633400"
   class="fil1"
   points="1828.14,1901.44 1829.62,1905.06 1831.03,1908.69 1832.37,1912.32 1833.63,1915.95 1834.83,1919.59 1835.96,1923.22 1837.02,1926.84 1838.02,1930.47 1838.94,1934.09 1839.79,1937.7 1840.58,1941.3 1841.3,1944.9 1841.95,1948.48 1842.54,1952.05 1843.06,1955.6 1843.51,1959.14 1843.89,1962.67 1844.21,1966.17 1844.46,1969.65 1844.65,1973.12 1844.77,1976.56 1844.83,1979.97 1844.82,1983.36 1844.75,1986.72 1844.61,1990.06 1844.41,1993.36 1844.14,1996.63 1843.81,1999.87 1843.42,2003.08 1842.97,2006.25 1842.45,2009.38 706.566,873.496 707.084,870.363 707.54,867.194 707.932,863.99 708.262,860.75 708.527,857.477 708.728,854.174 708.866,850.84 708.938,847.477 708.948,844.088 708.891,840.673 708.769,837.233 708.582,833.77 708.329,830.286 708.011,826.783 707.626,823.26 707.175,819.721 706.656,816.166 706.072,812.597 705.42,809.014 704.701,805.42 703.913,801.818 703.058,798.206 702.134,794.587 701.142,790.962 700.082,787.334 698.952,783.703 697.753,780.071 696.486,776.44 695.148,772.809 693.74,769.182 692.261,765.559 690.713,761.943 1826.59,1897.83 " />
     <polygon
   id="_299633568"
   class="fil1"
   points="1841.8,2012.79 1841.08,2016.17 1840.29,2019.49 1839.42,2022.77 1838.48,2026 1837.46,2029.18 1836.37,2032.31 1835.21,2035.38 1833.97,2038.4 1832.66,2041.36 1831.28,2044.26 1829.82,2047.1 1828.3,2049.88 1826.7,2052.6 1825.03,2055.25 1823.3,2057.84 1821.48,2060.35 1819.6,2062.8 1817.65,2065.18 1815.63,2067.48 1813.54,2069.71 1811.38,2071.86 1809.16,2073.94 1806.86,2075.93 1804.49,2077.85 1802.06,2079.68 1799.56,2081.43 1796.99,2083.09 1794.35,2084.67 1791.65,2086.16 1788.88,2087.55 1786.04,2088.86 650.16,952.977 652.997,951.672 655.767,950.276 658.471,948.789 661.107,947.212 663.676,945.549 666.178,943.801 668.612,941.968 670.978,940.052 673.275,938.056 675.502,935.981 677.662,933.827 679.752,931.599 681.773,929.296 683.723,926.919 685.603,924.472 687.414,921.954 689.152,919.368 690.821,916.717 692.418,913.999 693.943,911.219 695.397,908.377 696.779,905.475 698.088,902.514 699.324,899.496 700.488,896.423 701.578,893.297 702.595,890.117 703.537,886.888 704.406,883.609 705.201,880.283 705.921,876.911 706.566,873.496 1842.45,2009.38 " />
     <polygon
   id="_299633544"
   class="fil1"
   points="1783.17,2090.06 1780.27,2091.15 1777.35,2092.12 1774.41,2092.99 1771.46,2093.75 1768.48,2094.4 1765.49,2094.95 1762.49,2095.39 1759.47,2095.72 1756.44,2095.95 1753.4,2096.08 1750.35,2096.1 1747.29,2096.03 1744.22,2095.85 1741.15,2095.57 1738.08,2095.19 1735,2094.72 1731.92,2094.15 1728.85,2093.48 1725.77,2092.72 1722.7,2091.86 1719.63,2090.91 1716.57,2089.86 1713.52,2088.73 1710.47,2087.5 1707.43,2086.18 1704.41,2084.77 1701.39,2083.28 1698.4,2081.7 1695.41,2080.03 1692.45,2078.27 1689.5,2076.43 553.615,940.549 556.564,942.389 559.531,944.144 562.515,945.815 565.513,947.397 568.526,948.892 571.551,950.299 574.588,951.617 577.635,952.844 580.689,953.981 583.752,955.025 586.819,955.977 589.891,956.834 592.967,957.597 596.044,958.266 599.122,958.837 602.197,959.311 605.271,959.688 608.341,959.965 611.405,960.144 614.464,960.22 617.514,960.196 620.555,960.069 623.586,959.839 626.605,959.505 629.61,959.065 632.6,958.52 635.575,957.868 638.533,957.108 641.47,956.24 644.389,955.263 647.286,954.176 650.16,952.977 1786.04,2088.86 " />
     <polygon
   id="_299633472"
   class="fil1"
   points="2502.05,2423.58 2501.28,2435.46 2499.95,2447.05 2498.06,2458.35 2495.64,2469.37 2492.69,2480.1 2489.23,2490.55 2485.27,2500.72 2480.83,2510.61 2475.91,2520.21 2470.53,2529.53 2464.7,2538.56 2458.43,2547.32 2451.75,2555.79 2444.65,2563.99 2437.16,2571.91 2429.29,2579.54 2421.04,2586.9 2412.44,2593.98 2403.5,2600.78 2394.22,2607.31 2384.62,2613.56 2374.72,2619.53 2364.52,2625.23 2354.05,2630.65 2343.3,2635.8 2332.31,2640.68 2321.07,2645.28 2309.6,2649.6 2297.92,2653.66 2286.04,2657.44 2273.96,2660.95 1138.08,1525.07 1150.16,1521.56 1162.04,1517.78 1173.72,1513.72 1185.19,1509.39 1196.43,1504.79 1207.42,1499.92 1218.17,1494.77 1228.64,1489.35 1238.84,1483.65 1248.74,1477.68 1258.34,1471.43 1267.61,1464.9 1276.56,1458.1 1285.16,1451.02 1293.41,1443.66 1301.28,1436.02 1308.77,1428.11 1315.87,1419.91 1322.55,1411.44 1328.82,1402.68 1334.65,1393.64 1340.03,1384.32 1344.95,1374.72 1349.39,1364.84 1353.35,1354.67 1356.81,1344.22 1359.76,1333.49 1362.18,1322.47 1364.07,1311.16 1365.4,1299.58 1366.17,1287.7 1366.36,1275.54 2502.24,2411.42 " />
     <polygon
   id="_299633712"
   class="fil1"
   points="2269.28,2662.23 2264.58,2663.46 2259.84,2664.66 2255.09,2665.81 2250.3,2666.93 2245.5,2668 2240.67,2669.04 2235.82,2670.03 2230.96,2670.98 2226.07,2671.9 2221.16,2672.77 2216.23,2673.6 2211.29,2674.4 2206.33,2675.15 2201.35,2675.87 2196.36,2676.54 2191.36,2677.17 2186.34,2677.77 2181.31,2678.32 2176.26,2678.83 2171.21,2679.31 2166.14,2679.74 2161.07,2680.14 2155.98,2680.49 2150.89,2680.81 2145.79,2681.08 2140.68,2681.32 2135.57,2681.51 2130.46,2681.67 2125.34,2681.79 2120.21,2681.86 2115.09,2681.9 979.204,1546.02 984.33,1545.98 989.454,1545.9 994.575,1545.79 999.692,1545.63 1004.8,1545.44 1009.91,1545.2 1015.01,1544.92 1020.1,1544.61 1025.18,1544.25 1030.26,1543.86 1035.33,1543.43 1040.38,1542.95 1045.42,1542.44 1050.46,1541.88 1055.48,1541.29 1060.48,1540.66 1065.47,1539.98 1070.45,1539.27 1075.41,1538.52 1080.35,1537.72 1085.28,1536.89 1090.19,1536.02 1095.08,1535.1 1099.94,1534.15 1104.79,1533.15 1109.62,1532.12 1114.42,1531.05 1119.2,1529.93 1123.96,1528.78 1128.69,1527.58 1133.4,1526.35 1138.08,1525.07 2273.96,2660.95 " />
    </g>
    <path
   id="_300478568"
   class="fil1"
   d="m 1299.67,600.788 c 30.1748,14.3551 48.5729,44.3469 53.9185,81.2292 4.8413,33.3969 -1.1894,73.03 -19.2414,110.976 -18.0768,37.9996 -45.0685,67.7327 -74.0918,85.0808 -31.9701,19.1091 -66.7784,23.7803 -96.8387,9.47953 -30.1748,-14.3551 -48.5717,-44.3469 -53.9185,-81.2292 -4.8413,-33.3969 1.1906,-73.0312 19.2414,-110.975 18.078,-38.0008 45.0685,-67.7339 74.0918,-85.082 31.9701,-19.1091 66.7784,-23.7803 96.8387,-9.47953 z m 163.364,220.884 c 36.4571,-7.39843 70.8237,-0.22205 94.4552,23.2784 23.6729,23.5418 31.063,57.8788 23.8736,94.3607 -6.5327,33.1418 -25.4197,68.5713 -55.1115,98.4284 -29.628,29.7933 -64.9701,48.8575 -98.1568,55.591 -36.4559,7.3961 -70.8237,0.222 -94.4564,-23.2784 -23.6729,-23.5418 -31.063,-57.88 -23.8725,-94.3607 6.5315,-33.1418 25.4197,-68.5725 55.1103,-98.4296 29.628,-29.7945 64.9701,-48.8563 98.1579,-55.5898 z m -96.6792,453.864 c 1.0795,131.265 -98.5241,213.523 -228.275,249.536 -49.7894,13.8177 -104.187,20.7567 -158.878,20.9469 -54.4347,0.1902 -109.258,-6.3531 -160.175,-19.4906 -138.265,-35.6764 -248.127,-119.888 -249.398,-250.617 -0.072,-7.428 -0.10984,1.7232 -0.10984,-3.4205 0,-102.915 44.5713,-195.945 116.405,-263.464 71.3457,-67.06298 169.723,-108.87898 277.932,-109.92998 7.64764,-0.0768 -0.48898,-0.11339 4.13386,-0.11339 109.50598,0 208.35398,41.8382 280.19098,109.50797 72.3886,68.1886 117.317,162.624 118.175,267.044 z m -354.03,-616.522 z m -247.891,36.0177 z M 863.05,502.9587 c 36.0803,-5.26772 71.0776,10.9276 98.4875,41.3717 25.1032,27.8823 44.0174,68.3162 50.7874,114.684 6.7512,46.2319 0.1819,90.306 -15.8965,124.192 -17.5748,37.0441 -46.539,62.5985 -82.7209,67.8815 -36.0792,5.26772 -71.0764,-10.9287 -98.4863,-41.3717 -25.1032,-27.8835 -44.0174,-68.3162 -50.7874,-114.684 -6.75119,-46.2319 -0.18189,-90.306 15.8953,-124.192 17.576,-37.0441 46.5402,-62.5985 82.7209,-67.8815 z m -340.262,159.23 c 30.528,-13.3819 65.1898,-7.65355 96.5434,12.4287 28.4303,18.2067 54.4701,48.7559 71.3776,87.3249 16.8957,38.5406 21.7181,78.3497 15.8528,111.553 -6.47835,36.6685 -25.7918,66.0603 -56.4059,79.4812 -30.528,13.3819 -65.1898,7.65355 -96.5446,-12.4276 -28.4292,-18.2079 -54.4689,-48.7559 -71.3764,-87.3237 -16.8957,-38.5418 -21.7181,-78.352 -15.8528,-111.554 6.47835,-36.6685 25.7918,-66.0615 56.4059,-79.4823 z" />
   </g>
  </g>
  <path
   class="fil2"
   d="m 1024,-0.0011811 c 565.539,0 1024,458.4620011 1024,1023.9999811 0,565.539 -458.462,1024 -1024,1024 -565.539,0 -1024,-458.462 -1024,-1024 C 0,458.45982 458.462,-0.0011811 1024,-0.0011811 Z"
   id="path3" />
  <line
   class="fil3"
   x1="675.04901"
   y1="761.90601"
   x2="675.04901"
   y2="761.90698"
   id="line3" />
  <line
   class="fil3"
   x1="631.19598"
   y1="781.02002"
   x2="631.19598"
   y2="781.02002"
   id="line4" />
  <line
   class="fil3"
   x1="748.77197"
   y1="694.99701"
   x2="748.77197"
   y2="694.99701"
   id="line5" />
  <line
   class="fil3"
   x1="796.185"
   y1="688.25098"
   x2="796.185"
   y2="688.25201"
   id="line6" />
  <line
   class="fil3"
   x1="996.66302"
   y1="658.97601"
   x2="996.66302"
   y2="658.97803"
   id="line7" />
  <line
   class="fil3"
   x1="949.25"
   y1="665.72198"
   x2="949.25"
   y2="665.72198"
   id="line8" />
  <path
   class="fil4"
   d="m 967.992,898.984 c 109.506,0 208.354,41.8382 280.191,109.508 72.3886,68.1886 117.317,162.624 118.175,267.044 1.0795,131.265 -98.5241,213.523 -228.275,249.536 -49.7894,13.8177 -104.187,20.7567 -158.878,20.9469 -54.4347,0.1902 -109.258,-6.3531 -160.175,-19.4906 -138.265,-35.6764 -248.127,-119.888 -249.398,-250.617 -0.072,-7.428 -0.10984,1.7232 -0.10984,-3.4205 0,-102.915 44.5713,-195.945 116.405,-263.464 71.3457,-67.06298 169.723,-108.87898 277.932,-109.92998 7.64764,-0.0768 -0.48898,-0.11339 4.13386,-0.11339 z"
   id="path8" />
  <path
   class="fil5"
   d="m 522.792,662.189 c 30.528,-13.3819 65.1898,-7.65355 96.5434,12.4287 28.4303,18.2067 54.4701,48.7559 71.3776,87.3237 v 10e-4 c 16.8957,38.5406 21.7181,78.3497 15.8528,111.553 -6.47835,36.6685 -25.7918,66.0603 -56.4059,79.4812 -30.528,13.3819 -65.1898,7.65355 -96.5446,-12.4276 -28.4292,-18.2079 -54.4689,-48.7559 -71.3764,-87.3237 -16.8957,-38.5418 -21.7181,-78.352 -15.8528,-111.554 6.47835,-36.6685 25.7918,-66.0615 56.4059,-79.4823 z"
   id="path9" />
  <path
   class="fil5"
   d="m 863.053,502.959 c 36.0803,-5.26772 71.0776,10.9276 98.4875,41.3717 25.1032,27.8823 44.0174,68.3162 50.7874,114.682 v 0.002 c 6.7512,46.2319 0.1819,90.306 -15.8965,124.192 -17.5748,37.0441 -46.539,62.5985 -82.7209,67.8815 -36.0792,5.26772 -71.0764,-10.9287 -98.4863,-41.3717 -25.1032,-27.8835 -44.0174,-68.3162 -50.7874,-114.682 v -0.002 c -6.75119,-46.2319 -0.18189,-90.306 15.8953,-124.192 17.576,-37.0441 46.5402,-62.5985 82.7209,-67.8815 z"
   id="path10" />
  <path
   class="fil5"
   d="m 1299.67,600.788 c 30.1748,14.3551 48.5729,44.3469 53.9185,81.2292 4.8413,33.3969 -1.1894,73.03 -19.2414,110.976 -18.0768,37.9996 -45.0685,67.7327 -74.0918,85.0808 -31.9701,19.1091 -66.7784,23.7803 -96.8387,9.47953 -30.1748,-14.3551 -48.5717,-44.3469 -53.9185,-81.2292 -4.8413,-33.3969 1.1906,-73.0312 19.2414,-110.975 18.078,-38.0008 45.0685,-67.7339 74.0918,-85.082 31.9701,-19.1091 66.7784,-23.7803 96.8387,-9.47953 z"
   id="path11" />
  <path
   class="fil5"
   d="m 1557.49,844.951 c 23.6729,23.5418 31.063,57.8788 23.8736,94.3607 -6.5327,33.1418 -25.4197,68.5713 -55.1115,98.4284 -29.628,29.7933 -64.9701,48.8575 -98.1568,55.591 -36.4559,7.3961 -70.8237,0.222 -94.4564,-23.2784 -23.6729,-23.5418 -31.063,-57.88 -23.8725,-94.3607 6.5315,-33.1418 25.4197,-68.5725 55.1103,-98.4296 29.628,-29.7945 64.9701,-48.8563 98.1579,-55.5898 36.4571,-7.39843 70.8237,-0.22205 94.4552,23.2784 z"
   id="path12" />
 </g>
</svg>
